<svg xmlns="http://www.w3.org/2000/svg" xmlns:xlink="http://www.w3.org/1999/xlink" x="0" y="0" width="661.7777709960938" height="533.7777709960938" style="
        width:661.7777709960938px;
        height:533.7777709960938px;
        background: transparent;
        fill: none;
">
        <svg xmlns="http://www.w3.org/2000/svg"/>
        
        <svg xmlns="http://www.w3.org/2000/svg" class="role-diagram-draw-area"><g class="shapes-region" style="stroke: black; fill: none;"><g class="composite-shape" data-amt="diagram/shapes/plot" transform="matrix(1,0,0,1,46.96063232421877,18.99999999999997)"><g><g><g class="test-xgi"><line x1="24.0139044060793" y1="0" x2="24.0139044060793" y2="180.00000000000009" fill="none" stroke="#c3c3c3" stroke-width="0.5"/><line x1="49.67161869702667" y1="0" x2="49.67161869702667" y2="180.00000000000009" fill="none" stroke="#c3c3c3" stroke-width="0.5"/><line x1="75.32933298797404" y1="0" x2="75.32933298797404" y2="180.00000000000009" fill="none" stroke="#c3c3c3" stroke-width="0.5"/><line x1="100.98704727892142" y1="0" x2="100.98704727892142" y2="180.00000000000009" fill="none" stroke="#c3c3c3" stroke-width="0.5"/><line x1="126.64476156986879" y1="0" x2="126.64476156986879" y2="180.00000000000009" fill="none" stroke="#c3c3c3" stroke-width="0.5"/><line x1="152.30247586081617" y1="0" x2="152.30247586081617" y2="180.00000000000009" fill="none" stroke="#c3c3c3" stroke-width="0.5"/><line x1="177.96019015176353" y1="0" x2="177.96019015176353" y2="180.00000000000009" fill="none" stroke="#c3c3c3" stroke-width="0.5"/><line x1="203.6179044427109" y1="0" x2="203.6179044427109" y2="180.00000000000009" fill="none" stroke="#c3c3c3" stroke-width="0.5"/><line x1="229.27561873365826" y1="0" x2="229.27561873365826" y2="180.00000000000009" fill="none" stroke="#c3c3c3" stroke-width="0.5"/></g><g class="test-ygi"><line x1="20" y1="173.02229005663744" x2="234.99999999999997" y2="173.02229005663744" fill="none" stroke="#c3c3c3" stroke-width="0.5"/><line x1="20" y1="142.42056437407894" x2="234.99999999999997" y2="142.42056437407894" fill="none" stroke="#c3c3c3" stroke-width="0.5"/><line x1="20" y1="111.81883869152044" x2="234.99999999999997" y2="111.81883869152044" fill="none" stroke="#c3c3c3" stroke-width="0.5"/><line x1="20" y1="81.21711300896192" x2="234.99999999999997" y2="81.21711300896192" fill="none" stroke="#c3c3c3" stroke-width="0.5"/><line x1="20" y1="50.615387326403436" x2="234.99999999999997" y2="50.615387326403436" fill="none" stroke="#c3c3c3" stroke-width="0.5"/><line x1="20" y1="20.013661643844927" x2="234.99999999999997" y2="20.013661643844927" fill="none" stroke="#c3c3c3" stroke-width="0.5"/></g></g><g><rect class="real" x="21" y="1" width="212.99999999999997" height="178.00000000000009" style="fill: transparent; stroke: rgb(50, 50, 50); stroke-opacity: 1;"/><g class="test-plot-expression"><defs><clipPath id="cp7oo10yipo"><rect x="21" y="1" width="212.99999999999997" height="178.00000000000009"/></clipPath></defs><g clip-path="url(#cp7oo10yipo)"><path d=" M126.75,143.18 L127.25,145.54 L127.75,147.28 L128.25,148.71 L128.75,149.94 L129.25,151.02 L129.76,151.98 L130.26,152.85 L130.76,153.63 L131.26,154.34 L131.76,154.99 L132.26,155.58 L132.76,156.13 L133.26,156.63 L133.76,157.09 L134.27,157.52 L134.77,157.91 L135.27,158.27 L135.77,158.60 L136.27,158.91 L136.77,159.19 L137.27,159.45 L137.77,159.69 L138.28,159.91 L138.78,160.10 L139.28,160.28 L139.78,160.44 L140.28,160.59 L140.78,160.72 L141.28,160.83 L141.78,160.93 L142.28,161.01 L142.79,161.09 L143.29,161.14 L143.79,161.19 L144.29,161.22 L144.79,161.25 L145.29,161.26 L145.79,161.26 L146.29,161.25 L146.79,161.22 L147.30,161.19 L147.80,161.15 L148.30,161.10 L148.80,161.04 L149.30,160.96 L149.80,160.88 L150.30,160.79 L150.80,160.70 L151.31,160.59 L151.81,160.47 L152.31,160.35 L152.81,160.21 L153.31,160.07 L153.81,159.92 L154.31,159.76 L154.81,159.59 L155.31,159.41 L155.82,159.23 L156.32,159.04 L156.82,158.84 L157.32,158.63 L157.82,158.41 L158.32,158.18 L158.82,157.95 L159.32,157.71 L159.83,157.46 L160.33,157.20 L160.83,156.93 L161.33,156.66 L161.83,156.37 L162.33,156.08 L162.83,155.78 L163.33,155.47 L163.83,155.16 L164.34,154.83 L164.84,154.50 L165.34,154.16 L165.84,153.81 L166.34,153.45 L166.84,153.08 L167.34,152.70 L167.84,152.31 L168.34,151.92 L168.85,151.51 L169.35,151.10 L169.85,150.67 L170.35,150.24 L170.85,149.80 L171.35,149.35 L171.85,148.89 L172.35,148.41 L172.86,147.93 L173.36,147.44 L173.86,146.94 L174.36,146.42 L174.86,145.90 L175.36,145.37 L175.86,144.82 L176.36,144.27 L176.86,143.70 L177.37,143.12 L177.87,142.53 L178.37,141.93 L178.87,141.32 L179.37,140.69 L179.87,140.05 L180.37,139.40 L180.87,138.74 L181.38,138.07 L181.88,137.38 L182.38,136.68 L182.88,135.96 L183.38,135.24 L183.88,134.49 L184.38,133.74 L184.88,132.97 L185.38,132.18 L185.89,131.38 L186.39,130.57 L186.89,129.74 L187.39,128.89 L187.89,128.03 L188.39,127.16 L188.89,126.26 L189.39,125.35 L189.90,124.43 L190.40,123.48 L190.90,122.52 L191.40,121.54 L191.90,120.54 L192.40,119.53 L192.90,118.49 L193.40,117.44 L193.90,116.37 L194.41,115.28 L194.91,114.16 L195.41,113.03 L195.91,111.88 L196.41,110.70 L196.91,109.50 L197.41,108.28 L197.91,107.04 L198.41,105.78 L198.92,104.49 L199.42,103.18 L199.92,101.84 L200.42,100.48 L200.92,99.10 L201.42,97.68 L201.92,96.25 L202.42,94.78 L202.93,93.29 L203.43,91.77 L203.93,90.23 L204.43,88.65 L204.93,87.05 L205.43,85.41 L205.93,83.75 L206.43,82.05 L206.93,80.32 L207.44,78.56 L207.94,76.77 L208.44,74.95 L208.94,73.09 L209.44,71.19 L209.94,69.26 L210.44,67.30 L210.94,65.29 L211.45,63.25 L211.95,61.17 L212.45,59.06 L212.95,56.90 L213.45,54.70 L213.95,52.46 L214.45,50.18 L214.95,47.85 L215.45,45.48 L215.96,43.07 L216.46,40.61 L216.96,38.10 L217.46,35.55 L217.96,32.95 L218.46,30.29 L218.96,27.59 L219.46,24.84 L219.97,22.03 L220.47,19.17 L220.97,16.25 L221.47,13.28 L221.97,10.25 L222.47,7.16 L222.97,4.01 L223.47,0.81 L223.97,-2.46 L224.48,-5.80 L224.98,-9.19 L225.48,-12.66 L225.98,-16.19 L226.48,-19.79 L226.98,-23.46 L227.48,-27.20 L227.98,-31.01 L228.48,-34.90 L228.99,-38.86 L229.49,-42.91 L229.99,-47.03 L230.49,-51.23 L230.99,-55.51 L231.49,-59.88 L231.99,-64.34 L232.49,-68.88 L233.00,-73.52 L233.50,-78.24 L234.00,-83.06 L234.50,-87.98 L235.00,-92.99" style="stroke-width: 2; stroke: rgb(68, 128, 194); stroke-opacity: 0.8;"/><g><circle cx="126.6447615698688" cy="142.42056437407894" r="4" style="stroke-width: 3; stroke: rgb(60, 180, 75); stroke-opacity: 0.8; fill: rgb(60, 180, 75); fill-opacity: 0.15;"/></g><path d=" M20.00,-76.28 L20.50,-71.59 L21.00,-67.00 L21.50,-62.49 L22.00,-58.07 L22.51,-53.73 L23.01,-49.48 L23.51,-45.32 L24.01,-41.23 L24.51,-37.22 L25.01,-33.28 L25.51,-29.43 L26.01,-25.64 L26.52,-21.93 L27.02,-18.29 L27.52,-14.72 L28.02,-11.22 L28.52,-7.78 L29.02,-4.41 L29.52,-1.11 L30.02,2.14 L30.52,5.32 L31.03,8.44 L31.53,11.51 L32.03,14.51 L32.53,17.46 L33.03,20.35 L33.53,23.19 L34.03,25.98 L34.53,28.71 L35.03,31.39 L35.54,34.03 L36.04,36.61 L36.54,39.14 L37.04,41.63 L37.54,44.07 L38.04,46.47 L38.54,48.82 L39.04,51.13 L39.55,53.39 L40.05,55.61 L40.55,57.79 L41.05,59.94 L41.55,62.04 L42.05,64.10 L42.55,66.13 L43.05,68.11 L43.55,70.06 L44.06,71.98 L44.56,73.86 L45.06,75.71 L45.56,77.52 L46.06,79.30 L46.56,81.04 L47.06,82.76 L47.56,84.44 L48.07,86.09 L48.57,87.71 L49.07,89.31 L49.57,90.87 L50.07,92.40 L50.57,93.91 L51.07,95.39 L51.57,96.84 L52.07,98.27 L52.58,99.67 L53.08,101.05 L53.58,102.40 L54.08,103.72 L54.58,105.02 L55.08,106.30 L55.58,107.56 L56.08,108.79 L56.59,110.00 L57.09,111.19 L57.59,112.35 L58.09,113.50 L58.59,114.62 L59.09,115.73 L59.59,116.81 L60.09,117.88 L60.59,118.92 L61.10,119.95 L61.60,120.96 L62.10,121.95 L62.60,122.92 L63.10,123.87 L63.60,124.81 L64.10,125.73 L64.60,126.63 L65.10,127.52 L65.61,128.39 L66.11,129.24 L66.61,130.08 L67.11,130.91 L67.61,131.71 L68.11,132.51 L68.61,133.29 L69.11,134.05 L69.62,134.80 L70.12,135.54 L70.62,136.26 L71.12,136.97 L71.62,137.66 L72.12,138.35 L72.62,139.02 L73.12,139.67 L73.62,140.32 L74.13,140.95 L74.63,141.57 L75.13,142.18 L75.63,142.78 L76.13,143.36 L76.63,143.93 L77.13,144.50 L77.63,145.05 L78.14,145.59 L78.64,146.12 L79.14,146.64 L79.64,147.15 L80.14,147.64 L80.64,148.13 L81.14,148.61 L81.64,149.08 L82.14,149.53 L82.65,149.98 L83.15,150.42 L83.65,150.85 L84.15,151.27 L84.65,151.68 L85.15,152.08 L85.65,152.47 L86.15,152.86 L86.66,153.23 L87.16,153.60 L87.66,153.95 L88.16,154.30 L88.66,154.64 L89.16,154.97 L89.66,155.29 L90.16,155.60 L90.66,155.91 L91.17,156.20 L91.67,156.49 L92.17,156.77 L92.67,157.04 L93.17,157.31 L93.67,157.56 L94.17,157.81 L94.67,158.05 L95.17,158.28 L95.68,158.50 L96.18,158.71 L96.68,158.92 L97.18,159.12 L97.68,159.31 L98.18,159.49 L98.68,159.66 L99.18,159.82 L99.69,159.98 L100.19,160.13 L100.69,160.27 L101.19,160.40 L101.69,160.52 L102.19,160.63 L102.69,160.74 L103.19,160.83 L103.69,160.92 L104.20,161.00 L104.70,161.06 L105.20,161.12 L105.70,161.17 L106.20,161.21 L106.70,161.23 L107.20,161.25 L107.70,161.26 L108.21,161.25 L108.71,161.24 L109.21,161.21 L109.71,161.17 L110.21,161.12 L110.71,161.06 L111.21,160.98 L111.71,160.89 L112.21,160.79 L112.72,160.67 L113.22,160.53 L113.72,160.38 L114.22,160.21 L114.72,160.02 L115.22,159.82 L115.72,159.59 L116.22,159.35 L116.72,159.08 L117.23,158.79 L117.73,158.47 L118.23,158.12 L118.73,157.75 L119.23,157.34 L119.73,156.90 L120.23,156.43 L120.73,155.91 L121.24,155.34 L121.74,154.73 L122.24,154.05 L122.74,153.32 L123.24,152.50 L123.74,151.60 L124.24,150.59 L124.74,149.46 L125.24,148.15 L125.75,146.61 L126.25,144.68" style="stroke-width: 2; stroke: rgb(80, 227, 194); stroke-opacity: 1;"/></g></g><g class="test-xti" style="font-family: Asana-Math, Asana;"><line x1="20" y1="185.00000000000009" x2="230.99999999999997" y2="185.00000000000009" fill="none" stroke="rgb(50,50,50)" stroke-opacity="1" stroke-width="1"/><line x1="24.0139044060793" y1="185.00000000000009" x2="24.0139044060793" y2="189.00000000000009" fill="none" stroke="rgb(50,50,50)" stroke-opacity="1" stroke-width="1"/><line x1="49.67161869702667" y1="185.00000000000009" x2="49.67161869702667" y2="189.00000000000009" fill="none" stroke="rgb(50,50,50)" stroke-opacity="1" stroke-width="1"/><line x1="75.32933298797404" y1="185.00000000000009" x2="75.32933298797404" y2="189.00000000000009" fill="none" stroke="rgb(50,50,50)" stroke-opacity="1" stroke-width="1"/><line x1="100.98704727892142" y1="185.00000000000009" x2="100.98704727892142" y2="189.00000000000009" fill="none" stroke="rgb(50,50,50)" stroke-opacity="1" stroke-width="1"/><line x1="126.64476156986879" y1="185.00000000000009" x2="126.64476156986879" y2="189.00000000000009" fill="none" stroke="rgb(50,50,50)" stroke-opacity="1" stroke-width="1"/><line x1="152.30247586081617" y1="185.00000000000009" x2="152.30247586081617" y2="189.00000000000009" fill="none" stroke="rgb(50,50,50)" stroke-opacity="1" stroke-width="1"/><line x1="177.96019015176353" y1="185.00000000000009" x2="177.96019015176353" y2="189.00000000000009" fill="none" stroke="rgb(50,50,50)" stroke-opacity="1" stroke-width="1"/><line x1="203.6179044427109" y1="185.00000000000009" x2="203.6179044427109" y2="189.00000000000009" fill="none" stroke="rgb(50,50,50)" stroke-opacity="1" stroke-width="1"/><line x1="229.27561873365826" y1="185.00000000000009" x2="229.27561873365826" y2="189.00000000000009" fill="none" stroke="rgb(50,50,50)" stroke-opacity="1" stroke-width="1"/></g><g class="test-yti" style="font-family: Asana-Math, Asana;"><line x1="15" y1="4" x2="15" y2="180.00000000000009" fill="none" stroke="rgb(50,50,50)" stroke-opacity="1" stroke-width="1"/><line x1="11" y1="173.02229005663744" x2="15" y2="173.02229005663744" fill="none" stroke="rgb(50,50,50)" stroke-opacity="1" stroke-width="1"/><line x1="11" y1="142.42056437407894" x2="15" y2="142.42056437407894" fill="none" stroke="rgb(50,50,50)" stroke-opacity="1" stroke-width="1"/><line x1="11" y1="111.81883869152044" x2="15" y2="111.81883869152044" fill="none" stroke="rgb(50,50,50)" stroke-opacity="1" stroke-width="1"/><line x1="11" y1="81.21711300896192" x2="15" y2="81.21711300896192" fill="none" stroke="rgb(50,50,50)" stroke-opacity="1" stroke-width="1"/><line x1="11" y1="50.615387326403436" x2="15" y2="50.615387326403436" fill="none" stroke="rgb(50,50,50)" stroke-opacity="1" stroke-width="1"/><line x1="11" y1="20.013661643844927" x2="15" y2="20.013661643844927" fill="none" stroke="rgb(50,50,50)" stroke-opacity="1" stroke-width="1"/></g><g class="test-xtl" style="font-family: &quot;Open Sans&quot;, verdana, arial, sans-serif;"><text text-anchor="middle" font-size="8" dominant-baseline="hanging" stroke="none" fill="rgb(50,50,50)" fill-opacity="1" x="21.733904406079297" y="192.00000000000009">-2</text><text text-anchor="middle" font-size="8" dominant-baseline="hanging" stroke="none" fill="rgb(50,50,50)" fill-opacity="1" x="47.39161869702667" y="192.00000000000009">-1.5</text><text text-anchor="middle" font-size="8" dominant-baseline="hanging" stroke="none" fill="rgb(50,50,50)" fill-opacity="1" x="73.04933298797404" y="192.00000000000009">-1</text><text text-anchor="middle" font-size="8" dominant-baseline="hanging" stroke="none" fill="rgb(50,50,50)" fill-opacity="1" x="98.70704727892142" y="192.00000000000009">-0.5</text><text text-anchor="middle" font-size="8" dominant-baseline="hanging" stroke="none" fill="rgb(50,50,50)" fill-opacity="1" x="126.64476156986879" y="192.00000000000009">0</text><text text-anchor="middle" font-size="8" dominant-baseline="hanging" stroke="none" fill="rgb(50,50,50)" fill-opacity="1" x="152.30247586081617" y="192.00000000000009">0.5</text><text text-anchor="middle" font-size="8" dominant-baseline="hanging" stroke="none" fill="rgb(50,50,50)" fill-opacity="1" x="177.96019015176353" y="192.00000000000009">1</text><text text-anchor="middle" font-size="8" dominant-baseline="hanging" stroke="none" fill="rgb(50,50,50)" fill-opacity="1" x="203.6179044427109" y="192.00000000000009">1.5</text><text text-anchor="middle" font-size="8" dominant-baseline="hanging" stroke="none" fill="rgb(50,50,50)" fill-opacity="1" x="229.27561873365826" y="192.00000000000009">2</text></g><g class="test-ytl" style="font-family: &quot;Open Sans&quot;, verdana, arial, sans-serif;"><text text-anchor="end" dominant-baseline="middle" font-size="8" stroke="none" fill="rgb(50,50,50)" fill-opacity="1" x="7" y="173.02229005663744">0.5</text><text text-anchor="end" dominant-baseline="middle" font-size="8" stroke="none" fill="rgb(50,50,50)" fill-opacity="1" x="7" y="142.42056437407894">1</text><text text-anchor="end" dominant-baseline="middle" font-size="8" stroke="none" fill="rgb(50,50,50)" fill-opacity="1" x="7" y="111.81883869152044">1.5</text><text text-anchor="end" dominant-baseline="middle" font-size="8" stroke="none" fill="rgb(50,50,50)" fill-opacity="1" x="7" y="81.21711300896192">2</text><text text-anchor="end" dominant-baseline="middle" font-size="8" stroke="none" fill="rgb(50,50,50)" fill-opacity="1" x="7" y="50.615387326403436">2.5</text><text text-anchor="end" dominant-baseline="middle" font-size="8" stroke="none" fill="rgb(50,50,50)" fill-opacity="1" x="7" y="20.013661643844927">3</text></g></g></g></g><g class="composite-shape"><path class="real" d=" M290,21.84 L388.47,21.84 L388.47,105.84 L290,105.84 Z" style="stroke-width: 1; stroke: rgb(0, 0, 0); fill: none; fill-opacity: 1;"/></g><g class="arrow-line"><path class="connection real" stroke-dasharray="" d="  M300,52 L323.33,52" style="stroke: rgb(74, 144, 226); stroke-opacity: 1; stroke-width: 2; fill: none; fill-opacity: 1;"/></g><g class="arrow-line"><path class="connection real" stroke-dasharray="" d="  M300,74 L323.33,74" style="stroke: rgb(80, 227, 194); stroke-opacity: 1; stroke-width: 2; fill: none; fill-opacity: 1;"/></g><g class="arrow-line"><path class="connection real" stroke-dasharray="" d="  M300,92 L323.33,92" style="stroke: rgb(126, 211, 33); stroke-opacity: 1; stroke-width: 1; fill: none; fill-opacity: 1;"/><g><g stroke="rgb(126,211,33)" stroke-opacity="1" fill="rgb(126,211,33)" fill-opacity="1" transform="matrix(1,0,0,1,311.6666564941406,92)" style="stroke: rgb(126, 211, 33); fill: rgb(126, 211, 33); stroke-width: 1;"><circle cx="0" cy="0" r="3.35"/></g></g></g><g class="composite-shape" data-amt="diagram/shapes/plot" transform="matrix(1,0,0,1,395.96063232421875,18.99999999999997)"><g><g><g class="test-xgi"><line x1="29.226053303101168" y1="0" x2="29.226053303101168" y2="180.84027099609378" fill="none" stroke="#c3c3c3" stroke-width="0.5"/><line x1="59.536991864242594" y1="0" x2="59.536991864242594" y2="180.84027099609378" fill="none" stroke="#c3c3c3" stroke-width="0.5"/><line x1="89.84793042538402" y1="0" x2="89.84793042538402" y2="180.84027099609378" fill="none" stroke="#c3c3c3" stroke-width="0.5"/><line x1="120.15886898652545" y1="0" x2="120.15886898652545" y2="180.84027099609378" fill="none" stroke="#c3c3c3" stroke-width="0.5"/><line x1="150.46980754766687" y1="0" x2="150.46980754766687" y2="180.84027099609378" fill="none" stroke="#c3c3c3" stroke-width="0.5"/><line x1="180.7807461088083" y1="0" x2="180.7807461088083" y2="180.84027099609378" fill="none" stroke="#c3c3c3" stroke-width="0.5"/><line x1="211.09168466994973" y1="0" x2="211.09168466994973" y2="180.84027099609378" fill="none" stroke="#c3c3c3" stroke-width="0.5"/></g><g class="test-ygi"><line x1="20" y1="162.96146988528005" x2="240" y2="162.96146988528005" fill="none" stroke="#c3c3c3" stroke-width="0.5"/><line x1="20" y1="126.80988535554656" x2="240" y2="126.80988535554656" fill="none" stroke="#c3c3c3" stroke-width="0.5"/><line x1="20" y1="90.65830082581307" x2="240" y2="90.65830082581307" fill="none" stroke="#c3c3c3" stroke-width="0.5"/><line x1="20" y1="54.50671629607956" x2="240" y2="54.50671629607956" fill="none" stroke="#c3c3c3" stroke-width="0.5"/><line x1="20" y1="18.35513176634609" x2="240" y2="18.35513176634609" fill="none" stroke="#c3c3c3" stroke-width="0.5"/></g></g><g><rect class="real" x="21" y="1" width="218" height="178.84027099609378" style="fill: transparent; stroke: rgb(50, 50, 50); stroke-opacity: 1;"/><g class="test-plot-expression"><defs><clipPath id="cpzsbyzzszw"><rect x="21" y="1" width="218" height="178.84027099609378"/></clipPath></defs><g clip-path="url(#cpzsbyzzszw)"><path d=" M120.23,361.68 L120.73,361.68 L121.23,361.68 L121.73,337.39 L122.23,315.99 L122.73,299.46 L123.23,286.10 L123.74,274.94 L124.24,265.41 L124.74,257.14 L125.24,249.85 L125.74,243.37 L126.24,237.55 L126.74,232.28 L127.24,227.47 L127.74,223.07 L128.25,219.02 L128.75,215.27 L129.25,211.79 L129.75,208.54 L130.25,205.50 L130.75,202.65 L131.25,199.96 L131.75,197.43 L132.26,195.03 L132.76,192.76 L133.26,190.59 L133.76,188.54 L134.26,186.57 L134.76,184.69 L135.26,182.89 L135.76,181.17 L136.26,179.51 L136.77,177.91 L137.27,176.38 L137.77,174.89 L138.27,173.45 L138.77,172.06 L139.27,170.72 L139.77,169.41 L140.27,168.14 L140.77,166.90 L141.28,165.69 L141.78,164.52 L142.28,163.37 L142.78,162.25 L143.28,161.15 L143.78,160.08 L144.28,159.03 L144.78,157.99 L145.28,156.98 L145.79,155.98 L146.29,155.00 L146.79,154.03 L147.29,153.07 L147.79,152.13 L148.29,151.20 L148.79,150.28 L149.29,149.37 L149.79,148.47 L150.30,147.58 L150.80,146.70 L151.30,145.82 L151.80,144.95 L152.30,144.08 L152.80,143.22 L153.30,142.37 L153.80,141.52 L154.31,140.67 L154.81,139.82 L155.31,138.98 L155.81,138.14 L156.31,137.30 L156.81,136.46 L157.31,135.62 L157.81,134.79 L158.31,133.95 L158.82,133.11 L159.32,132.27 L159.82,131.43 L160.32,130.59 L160.82,129.74 L161.32,128.89 L161.82,128.04 L162.32,127.19 L162.82,126.33 L163.33,125.47 L163.83,124.60 L164.33,123.73 L164.83,122.86 L165.33,121.97 L165.83,121.09 L166.33,120.20 L166.83,119.30 L167.33,118.39 L167.84,117.48 L168.34,116.56 L168.84,115.64 L169.34,114.71 L169.84,113.76 L170.34,112.81 L170.84,111.86 L171.34,110.89 L171.85,109.91 L172.35,108.93 L172.85,107.93 L173.35,106.93 L173.85,105.91 L174.35,104.89 L174.85,103.85 L175.35,102.80 L175.85,101.74 L176.36,100.67 L176.86,99.59 L177.36,98.50 L177.86,97.39 L178.36,96.27 L178.86,95.13 L179.36,93.98 L179.86,92.82 L180.36,91.65 L180.87,90.46 L181.37,89.25 L181.87,88.03 L182.37,86.79 L182.87,85.54 L183.37,84.27 L183.87,82.99 L184.37,81.69 L184.87,80.37 L185.38,79.03 L185.88,77.68 L186.38,76.30 L186.88,74.91 L187.38,73.50 L187.88,72.07 L188.38,70.62 L188.88,69.15 L189.38,67.66 L189.89,66.15 L190.39,64.61 L190.89,63.06 L191.39,61.48 L191.89,59.88 L192.39,58.26 L192.89,56.61 L193.39,54.94 L193.90,53.24 L194.40,51.52 L194.90,49.78 L195.40,48.00 L195.90,46.20 L196.40,44.38 L196.90,42.53 L197.40,40.65 L197.90,38.74 L198.41,36.80 L198.91,34.83 L199.41,32.83 L199.91,30.80 L200.41,28.74 L200.91,26.65 L201.41,24.53 L201.91,22.37 L202.41,20.18 L202.92,17.96 L203.42,15.70 L203.92,13.41 L204.42,11.08 L204.92,8.71 L205.42,6.30 L205.92,3.86 L206.42,1.38 L206.92,-1.14 L207.43,-3.70 L207.93,-6.30 L208.43,-8.95 L208.93,-11.63 L209.43,-14.36 L209.93,-17.13 L210.43,-19.95 L210.93,-22.81 L211.44,-25.72 L211.94,-28.68 L212.44,-31.69 L212.94,-34.74 L213.44,-37.84 L213.94,-41.00 L214.44,-44.21 L214.94,-47.47 L215.44,-50.78 L215.95,-54.15 L216.45,-57.57 L216.95,-61.05 L217.45,-64.59 L217.95,-68.18 L218.45,-71.84 L218.95,-75.55 L219.45,-79.33 L219.95,-83.18 L220.46,-87.08 L220.96,-91.05 L221.46,-95.09 L221.96,-99.20 L222.46,-103.37 L222.96,-107.62 L223.46,-111.94 L223.96,-116.33 L224.46,-120.79 L224.97,-125.33 L225.47,-129.95 L225.97,-134.64 L226.47,-139.42 L226.97,-144.28 L227.47,-149.22 L227.97,-154.24 L228.47,-159.35 L228.97,-164.55 L229.48,-169.84 L229.98,-175.22 L230.48,-180.69 L230.98,-180.84 L231.48,-180.84 L231.98,-180.84 L232.48,-180.84 L232.98,-180.84 L233.49,-180.84 L233.99,-180.84 L234.49,-180.84 L234.99,-180.84 L235.49,-180.84 L235.99,-180.84 L236.49,-180.84 L236.99,-180.84 L237.49,-180.84 L238.00,-180.84 L238.50,-180.84 L239.00,-180.84 L239.50,-180.84 L240.00,-180.84" style="stroke-width: 2; stroke: rgb(68, 128, 194); stroke-opacity: 0.8;"/><g><circle cx="120.15886898652545" cy="90.65830082581306" r="4" style="stroke-width: 3; stroke: rgb(60, 180, 75); stroke-opacity: 0.8; fill: rgb(60, 180, 75); fill-opacity: 0.15;"/></g><path d=" M20.00,361.68 L20.50,361.68 L21.00,361.68 L21.50,361.68 L22.00,361.68 L22.51,361.68 L23.01,361.68 L23.51,361.68 L24.01,361.68 L24.51,361.68 L25.01,361.68 L25.51,361.68 L26.01,361.68 L26.51,361.68 L27.02,361.68 L27.52,359.82 L28.02,356.78 L28.52,353.79 L29.02,350.84 L29.52,347.95 L30.02,345.09 L30.52,342.29 L31.03,339.53 L31.53,336.81 L32.03,334.14 L32.53,331.51 L33.03,328.92 L33.53,326.37 L34.03,323.86 L34.53,321.39 L35.03,318.95 L35.54,316.56 L36.04,314.20 L36.54,311.88 L37.04,309.60 L37.54,307.35 L38.04,305.13 L38.54,302.95 L39.04,300.81 L39.54,298.69 L40.05,296.61 L40.55,294.56 L41.05,292.54 L41.55,290.55 L42.05,288.59 L42.55,286.66 L43.05,284.76 L43.55,282.88 L44.05,281.04 L44.56,279.22 L45.06,277.43 L45.56,275.66 L46.06,273.93 L46.56,272.21 L47.06,270.52 L47.56,268.86 L48.06,267.22 L48.56,265.60 L49.07,264.01 L49.57,262.43 L50.07,260.89 L50.57,259.36 L51.07,257.85 L51.57,256.37 L52.07,254.90 L52.57,253.46 L53.08,252.03 L53.58,250.63 L54.08,249.24 L54.58,247.87 L55.08,246.52 L55.58,245.19 L56.08,243.88 L56.58,242.58 L57.08,241.30 L57.59,240.04 L58.09,238.79 L58.59,237.56 L59.09,236.34 L59.59,235.14 L60.09,233.95 L60.59,232.78 L61.09,231.62 L61.59,230.48 L62.10,229.35 L62.60,228.23 L63.10,227.13 L63.60,226.03 L64.10,224.95 L64.60,223.89 L65.10,222.83 L65.60,221.79 L66.10,220.75 L66.61,219.73 L67.11,218.72 L67.61,217.71 L68.11,216.72 L68.61,215.74 L69.11,214.77 L69.61,213.80 L70.11,212.85 L70.62,211.90 L71.12,210.96 L71.62,210.03 L72.12,209.11 L72.62,208.19 L73.12,207.28 L73.62,206.38 L74.12,205.48 L74.62,204.59 L75.13,203.71 L75.63,202.83 L76.13,201.95 L76.63,201.08 L77.13,200.22 L77.63,199.36 L78.13,198.50 L78.63,197.65 L79.13,196.80 L79.64,195.95 L80.14,195.11 L80.64,194.26 L81.14,193.42 L81.64,192.58 L82.14,191.74 L82.64,190.91 L83.14,190.07 L83.64,189.23 L84.15,188.39 L84.65,187.55 L85.15,186.71 L85.65,185.87 L86.15,185.02 L86.65,184.17 L87.15,183.32 L87.65,182.46 L88.15,181.60 L88.66,180.74 L89.16,179.86 L89.66,178.98 L90.16,178.10 L90.66,177.20 L91.16,176.30 L91.66,175.39 L92.16,174.47 L92.67,173.53 L93.17,172.59 L93.67,171.63 L94.17,170.66 L94.67,169.67 L95.17,168.67 L95.67,167.65 L96.17,166.61 L96.67,165.55 L97.18,164.47 L97.68,163.37 L98.18,162.24 L98.68,161.08 L99.18,159.90 L99.68,158.69 L100.18,157.44 L100.68,156.16 L101.18,154.84 L101.69,153.48 L102.19,152.08 L102.69,150.63 L103.19,149.13 L103.69,147.58 L104.19,145.96 L104.69,144.29 L105.19,142.54 L105.69,140.72 L106.20,138.82 L106.70,136.83 L107.20,134.75 L107.70,132.55 L108.20,130.25 L108.70,127.81 L109.20,125.24 L109.70,122.51 L110.21,119.61 L110.71,116.51 L111.21,113.20 L111.71,109.65 L112.21,105.82 L112.71,101.68 L113.21,97.17 L113.71,92.25 L114.21,86.83 L114.72,80.84 L115.22,74.15 L115.72,66.62 L116.22,58.03 L116.72,48.10 L117.22,36.40 L117.72,22.28 L118.22,4.64 L118.72,-18.61 L119.23,-52.22 L119.73,-112.29" style="stroke-width: 2; stroke: rgb(80, 227, 194); stroke-opacity: 1;"/></g></g><g class="test-xti" style="font-family: Asana-Math, Asana;"><line x1="20" y1="185.84027099609378" x2="236" y2="185.84027099609378" fill="none" stroke="rgb(50,50,50)" stroke-opacity="1" stroke-width="1"/><line x1="29.226053303101168" y1="185.84027099609378" x2="29.226053303101168" y2="189.84027099609378" fill="none" stroke="rgb(50,50,50)" stroke-opacity="1" stroke-width="1"/><line x1="59.536991864242594" y1="185.84027099609378" x2="59.536991864242594" y2="189.84027099609378" fill="none" stroke="rgb(50,50,50)" stroke-opacity="1" stroke-width="1"/><line x1="89.84793042538402" y1="185.84027099609378" x2="89.84793042538402" y2="189.84027099609378" fill="none" stroke="rgb(50,50,50)" stroke-opacity="1" stroke-width="1"/><line x1="120.15886898652545" y1="185.84027099609378" x2="120.15886898652545" y2="189.84027099609378" fill="none" stroke="rgb(50,50,50)" stroke-opacity="1" stroke-width="1"/><line x1="150.46980754766687" y1="185.84027099609378" x2="150.46980754766687" y2="189.84027099609378" fill="none" stroke="rgb(50,50,50)" stroke-opacity="1" stroke-width="1"/><line x1="180.7807461088083" y1="185.84027099609378" x2="180.7807461088083" y2="189.84027099609378" fill="none" stroke="rgb(50,50,50)" stroke-opacity="1" stroke-width="1"/><line x1="211.09168466994973" y1="185.84027099609378" x2="211.09168466994973" y2="189.84027099609378" fill="none" stroke="rgb(50,50,50)" stroke-opacity="1" stroke-width="1"/></g><g class="test-yti" style="font-family: Asana-Math, Asana;"><line x1="15" y1="4" x2="15" y2="180.84027099609378" fill="none" stroke="rgb(50,50,50)" stroke-opacity="1" stroke-width="1"/><line x1="11" y1="162.96146988528005" x2="15" y2="162.96146988528005" fill="none" stroke="rgb(50,50,50)" stroke-opacity="1" stroke-width="1"/><line x1="11" y1="126.80988535554656" x2="15" y2="126.80988535554656" fill="none" stroke="rgb(50,50,50)" stroke-opacity="1" stroke-width="1"/><line x1="11" y1="90.65830082581307" x2="15" y2="90.65830082581307" fill="none" stroke="rgb(50,50,50)" stroke-opacity="1" stroke-width="1"/><line x1="11" y1="54.50671629607956" x2="15" y2="54.50671629607956" fill="none" stroke="rgb(50,50,50)" stroke-opacity="1" stroke-width="1"/><line x1="11" y1="18.35513176634609" x2="15" y2="18.35513176634609" fill="none" stroke="rgb(50,50,50)" stroke-opacity="1" stroke-width="1"/></g><g class="test-xtl" style="font-family: &quot;Open Sans&quot;, verdana, arial, sans-serif;"><text text-anchor="middle" font-size="8" dominant-baseline="hanging" stroke="none" fill="rgb(50,50,50)" fill-opacity="1" x="26.946053303101166" y="192.84027099609378">-1.5</text><text text-anchor="middle" font-size="8" dominant-baseline="hanging" stroke="none" fill="rgb(50,50,50)" fill-opacity="1" x="57.25699186424259" y="192.84027099609378">-1</text><text text-anchor="middle" font-size="8" dominant-baseline="hanging" stroke="none" fill="rgb(50,50,50)" fill-opacity="1" x="87.56793042538402" y="192.84027099609378">-0.5</text><text text-anchor="middle" font-size="8" dominant-baseline="hanging" stroke="none" fill="rgb(50,50,50)" fill-opacity="1" x="120.15886898652545" y="192.84027099609378">0</text><text text-anchor="middle" font-size="8" dominant-baseline="hanging" stroke="none" fill="rgb(50,50,50)" fill-opacity="1" x="150.46980754766687" y="192.84027099609378">0.5</text><text text-anchor="middle" font-size="8" dominant-baseline="hanging" stroke="none" fill="rgb(50,50,50)" fill-opacity="1" x="180.7807461088083" y="192.84027099609378">1</text><text text-anchor="middle" font-size="8" dominant-baseline="hanging" stroke="none" fill="rgb(50,50,50)" fill-opacity="1" x="211.09168466994973" y="192.84027099609378">1.5</text></g><g class="test-ytl" style="font-family: &quot;Open Sans&quot;, verdana, arial, sans-serif;"><text text-anchor="end" dominant-baseline="middle" font-size="8" stroke="none" fill="rgb(50,50,50)" fill-opacity="1" x="7" y="162.96146988528005">0</text><text text-anchor="end" dominant-baseline="middle" font-size="8" stroke="none" fill="rgb(50,50,50)" fill-opacity="1" x="7" y="126.80988535554656">0.5</text><text text-anchor="end" dominant-baseline="middle" font-size="8" stroke="none" fill="rgb(50,50,50)" fill-opacity="1" x="7" y="90.65830082581307">1</text><text text-anchor="end" dominant-baseline="middle" font-size="8" stroke="none" fill="rgb(50,50,50)" fill-opacity="1" x="7" y="54.50671629607956">1.5</text><text text-anchor="end" dominant-baseline="middle" font-size="8" stroke="none" fill="rgb(50,50,50)" fill-opacity="1" x="7" y="18.35513176634609">2</text></g></g></g></g><g class="composite-shape"><path class="real" d=" M290,110.84 L388.47,110.84 L388.47,194.84 L290,194.84 Z" style="stroke-width: 1; stroke: rgb(0, 0, 0); fill: none; fill-opacity: 1;"/></g><g class="arrow-line"><path class="connection real" stroke-dasharray="" d="  M300,141 L323.33,141" style="stroke: rgb(74, 144, 226); stroke-opacity: 1; stroke-width: 2; fill: none; fill-opacity: 1;"/></g><g class="arrow-line"><path class="connection real" stroke-dasharray="" d="  M300,163 L323.33,163" style="stroke: rgb(80, 227, 194); stroke-opacity: 1; stroke-width: 2; fill: none; fill-opacity: 1;"/></g><g class="arrow-line"><path class="connection real" stroke-dasharray="" d="  M300,181 L323.33,181" style="stroke: rgb(126, 211, 33); stroke-opacity: 1; stroke-width: 1; fill: none; fill-opacity: 1;"/><g><g stroke="rgb(126,211,33)" stroke-opacity="1" fill="rgb(126,211,33)" fill-opacity="1" transform="matrix(1,0,0,1,311.6666564941406,181)" style="stroke: rgb(126, 211, 33); fill: rgb(126, 211, 33); stroke-width: 1;"><circle cx="0" cy="0" r="3.35"/></g></g></g><g/></g><g/><g/><g/></svg>
        <svg xmlns="http://www.w3.org/2000/svg" xmlns:xlink="http://www.w3.org/1999/xlink" width="660" height="532" style="width:660px;height:532px;font-family:Asana-Math, Asana;background:transparent;"><g><g><g><g><g><g><g transform="matrix(1,0,0,1,347.90283203125,58.96527099609375)"><path transform="matrix(0.017,0,0,-0.017,0,0)" d="M9 1C24 -7 40 -11 52 -11C85 -11 124 18 155 65L231 182L242 113C255 28 278 -11 314 -11C336 -11 368 6 400 35L449 79L440 98C404 68 379 53 363 53C348 53 335 63 325 83C316 102 305 139 300 168L282 269L317 318C364 383 391 406 422 406C438 406 450 398 455 383L469 387L484 472C472 479 463 482 454 482C414 482 374 446 312 354L275 299L269 347C257 446 230 482 171 482C145 482 123 474 114 461L56 378L73 368C103 402 123 416 142 416C175 416 197 375 214 277L225 215L185 153C142 86 108 54 80 54C65 54 54 58 52 63L41 91L21 88C21 53 13 27 9 1Z" stroke="rgb(0,0,0)" stroke-opacity="1" stroke-width="8" fill="rgb(0,0,0)" fill-opacity="1"></path></g></g><g><g><g><g><g transform="matrix(1,0,0,1,357.36114501953125,53.156942749023436)"><path transform="matrix(0.0119,0,0,-0.0119,0,0)" d="M9 1C24 -7 40 -11 52 -11C85 -11 124 18 155 65L231 182L242 113C255 28 278 -11 314 -11C336 -11 368 6 400 35L449 79L440 98C404 68 379 53 363 53C348 53 335 63 325 83C316 102 305 139 300 168L282 269L317 318C364 383 391 406 422 406C438 406 450 398 455 383L469 387L484 472C472 479 463 482 454 482C414 482 374 446 312 354L275 299L269 347C257 446 230 482 171 482C145 482 123 474 114 461L56 378L73 368C103 402 123 416 142 416C175 416 197 375 214 277L225 215L185 153C142 86 108 54 80 54C65 54 54 58 52 63L41 91L21 88C21 53 13 27 9 1Z" stroke="rgb(0,0,0)" stroke-opacity="1" stroke-width="8" fill="rgb(0,0,0)" fill-opacity="1"></path></g></g></g></g></g></g></g></g></g></g><g><g><g><g><g><g><g transform="matrix(1,0,0,1,338.22222900390625,78.85415649414062)"><path transform="matrix(0.017,0,0,-0.017,0,0)" d="M146 266C146 526 243 632 301 700L282 726C225 675 60 542 60 266C60 159 85 58 133 -32C168 -99 200 -138 282 -215L301 -194C255 -137 146 -15 146 266Z" stroke="rgb(0,0,0)" stroke-opacity="1" stroke-width="8" fill="rgb(0,0,0)" fill-opacity="1"></path></g></g><g><g transform="matrix(1,0,0,1,343.875,77.96527099609375)"><path transform="matrix(0.017,0,0,-0.017,0,0)" d="M555 243L555 299L51 299L51 243Z" stroke="rgb(0,0,0)" stroke-opacity="1" stroke-width="8" fill="rgb(0,0,0)" fill-opacity="1"></path></g></g><g><g transform="matrix(1,0,0,1,354.16668701171875,77.96527099609375)"><path transform="matrix(0.017,0,0,-0.017,0,0)" d="M9 1C24 -7 40 -11 52 -11C85 -11 124 18 155 65L231 182L242 113C255 28 278 -11 314 -11C336 -11 368 6 400 35L449 79L440 98C404 68 379 53 363 53C348 53 335 63 325 83C316 102 305 139 300 168L282 269L317 318C364 383 391 406 422 406C438 406 450 398 455 383L469 387L484 472C472 479 463 482 454 482C414 482 374 446 312 354L275 299L269 347C257 446 230 482 171 482C145 482 123 474 114 461L56 378L73 368C103 402 123 416 142 416C175 416 197 375 214 277L225 215L185 153C142 86 108 54 80 54C65 54 54 58 52 63L41 91L21 88C21 53 13 27 9 1Z" stroke="rgb(0,0,0)" stroke-opacity="1" stroke-width="8" fill="rgb(0,0,0)" fill-opacity="1"></path></g></g><g><g transform="matrix(1,0,0,1,362.65283203125,78.85415649414062)"><path transform="matrix(0.017,0,0,-0.017,0,0)" d="M51 726L32 700C87 636 187 526 187 266C187 -10 83 -131 32 -194L51 -215C104 -165 273 -23 273 265C273 542 108 675 51 726Z" stroke="rgb(0,0,0)" stroke-opacity="1" stroke-width="8" fill="rgb(0,0,0)" fill-opacity="1"></path></g></g><g><g><g><g><g transform="matrix(1,0,0,1,369.27783203125,72.15694274902344)"><path transform="matrix(0.0119,0,0,-0.0119,0,0)" d="M555 243L555 299L51 299L51 243ZM614 1C629 -7 645 -11 657 -11C690 -11 729 18 760 65L836 182L847 113C860 28 883 -11 919 -11C941 -11 973 6 1005 35L1054 79L1045 98C1009 68 984 53 968 53C953 53 940 63 930 83C921 102 910 139 905 168L887 269L922 318C969 383 996 406 1027 406C1043 406 1055 398 1060 383L1074 387L1089 472C1077 479 1068 482 1059 482C1019 482 979 446 917 354L880 299L874 347C862 446 835 482 776 482C750 482 728 474 719 461L661 378L678 368C708 402 728 416 747 416C780 416 802 375 819 277L830 215L790 153C747 86 713 54 685 54C670 54 659 58 657 63L646 91L626 88C626 53 618 27 614 1Z" stroke="rgb(0,0,0)" stroke-opacity="1" stroke-width="8" fill="rgb(0,0,0)" fill-opacity="1"></path></g></g></g></g></g></g></g></g></g></g><g><g><g><text x="337.22222900390625" y="84.27778625488281" style="white-space:pre;stroke:none;fill:rgb(0,0,0);fill-opacity:1;font-size:15px;font-family:Arial, Helvetica, sans-serif;font-weight:400;font-style:normal;dominant-baseline:text-before-edge;text-decoration:none solid rgb(0, 0, 0);">(0,1)</text></g></g></g><g><g><g><g><g><g><g transform="matrix(1,0,0,1,323.16668701171875,38.166656494140625)"><path transform="matrix(0.017,0,0,-0.017,0,0)" d="M345 437L329 437L350 549C366 635 394 673 440 673C470 673 497 658 512 634L522 638C527 654 537 685 545 705L550 720C534 727 503 733 480 733C469 733 453 730 445 726C421 715 339 654 316 630C294 608 282 578 271 521L256 442C215 422 195 414 170 405L165 383L246 383L237 327C207 132 170 -54 148 -123C130 -182 100 -213 64 -213C41 -213 30 -206 12 -184L-2 -188C-6 -211 -20 -259 -25 -268C-16 -273 -1 -276 10 -276C51 -276 105 -245 144 -198C215 -114 235 -18 319 383L423 383C427 402 434 425 440 439L436 446C407 439 408 437 345 437Z" stroke="rgb(0,0,0)" stroke-opacity="1" stroke-width="8" fill="rgb(0,0,0)" fill-opacity="1"></path></g></g><g><g transform="matrix(1,0,0,1,332.52783203125,39.05555725097656)"><path transform="matrix(0.017,0,0,-0.017,0,0)" d="M146 266C146 526 243 632 301 700L282 726C225 675 60 542 60 266C60 159 85 58 133 -32C168 -99 200 -138 282 -215L301 -194C255 -137 146 -15 146 266Z" stroke="rgb(0,0,0)" stroke-opacity="1" stroke-width="8" fill="rgb(0,0,0)" fill-opacity="1"></path></g></g><g><g transform="matrix(1,0,0,1,338.18060302734375,38.166656494140625)"><path transform="matrix(0.017,0,0,-0.017,0,0)" d="M9 1C24 -7 40 -11 52 -11C85 -11 124 18 155 65L231 182L242 113C255 28 278 -11 314 -11C336 -11 368 6 400 35L449 79L440 98C404 68 379 53 363 53C348 53 335 63 325 83C316 102 305 139 300 168L282 269L317 318C364 383 391 406 422 406C438 406 450 398 455 383L469 387L484 472C472 479 463 482 454 482C414 482 374 446 312 354L275 299L269 347C257 446 230 482 171 482C145 482 123 474 114 461L56 378L73 368C103 402 123 416 142 416C175 416 197 375 214 277L225 215L185 153C142 86 108 54 80 54C65 54 54 58 52 63L41 91L21 88C21 53 13 27 9 1Z" stroke="rgb(0,0,0)" stroke-opacity="1" stroke-width="8" fill="rgb(0,0,0)" fill-opacity="1"></path></g></g><g><g transform="matrix(1,0,0,1,346.66668701171875,39.05555725097656)"><path transform="matrix(0.017,0,0,-0.017,0,0)" d="M51 726L32 700C87 636 187 526 187 266C187 -10 83 -131 32 -194L51 -215C104 -165 273 -23 273 265C273 542 108 675 51 726Z" stroke="rgb(0,0,0)" stroke-opacity="1" stroke-width="8" fill="rgb(0,0,0)" fill-opacity="1"></path></g></g></g></g></g></g></g><g><g><g><g><g><g><g transform="matrix(1,0,0,1,337.66668701171875,144.31248474121094)"><path transform="matrix(0.0085,0,0,-0.0085,0,0)" d="M9 1C24 -7 40 -11 52 -11C85 -11 124 18 155 65L231 182L242 113C255 28 278 -11 314 -11C336 -11 368 6 400 35L449 79L440 98C404 68 379 53 363 53C348 53 335 63 325 83C316 102 305 139 300 168L282 269L317 318C364 383 391 406 422 406C438 406 450 398 455 383L469 387L484 472C472 479 463 482 454 482C414 482 374 446 312 354L275 299L269 347C257 446 230 482 171 482C145 482 123 474 114 461L56 378L73 368C103 402 123 416 142 416C175 416 197 375 214 277L225 215L185 153C142 86 108 54 80 54C65 54 54 58 52 63L41 91L21 88C21 53 13 27 9 1Z" stroke="rgb(0,0,0)" stroke-opacity="1" stroke-width="8" fill="rgb(0,0,0)" fill-opacity="1"></path></g></g><g><g><g><g><g transform="matrix(1,0,0,1,342.40283203125,141.85971374511718)"><path transform="matrix(0.00595,0,0,-0.00595,0,0)" d="M9 1C24 -7 40 -11 52 -11C85 -11 124 18 155 65L231 182L242 113C255 28 278 -11 314 -11C336 -11 368 6 400 35L449 79L440 98C404 68 379 53 363 53C348 53 335 63 325 83C316 102 305 139 300 168L282 269L317 318C364 383 391 406 422 406C438 406 450 398 455 383L469 387L484 472C472 479 463 482 454 482C414 482 374 446 312 354L275 299L269 347C257 446 230 482 171 482C145 482 123 474 114 461L56 378L73 368C103 402 123 416 142 416C175 416 197 375 214 277L225 215L185 153C142 86 108 54 80 54C65 54 54 58 52 63L41 91L21 88C21 53 13 27 9 1Z" stroke="rgb(0,0,0)" stroke-opacity="1" stroke-width="8" fill="rgb(0,0,0)" fill-opacity="1"></path></g></g></g></g></g><g><g transform="matrix(1,0,0,1,345.875,145.20140075683594)"><path transform="matrix(0.0085,0,0,-0.0085,0,0)" d="M146 266C146 526 243 632 301 700L282 726C225 675 60 542 60 266C60 159 85 58 133 -32C168 -99 200 -138 282 -215L301 -194C255 -137 146 -15 146 266Z" stroke="rgb(0,0,0)" stroke-opacity="1" stroke-width="8" fill="rgb(0,0,0)" fill-opacity="1"></path></g></g><g><g><g transform="matrix(1,0,0,1,348.7083740234375,144.31248474121094)"><path transform="matrix(0.0085,0,0,-0.0085,0,0)" d="M23 661L79 661C97 661 104 650 104 620L104 102C104 39 101 32 67 30L21 27L21 -3C121 0 121 0 146 0C171 0 171 0 271 -3L271 27L225 30C191 32 188 39 188 102L188 718L179 726C135 709 102 701 23 689ZM700 -3C761 0 762 0 779 0C793 0 793 0 862 -3L862 27L821 30C787 32 784 38 784 102L784 295C784 412 729 469 617 469C580 469 559 462 538 444L462 378L462 465L453 469C402 448 350 434 297 428L297 400L334 400C374 400 378 393 378 327L378 102C378 39 375 32 341 30L296 27L296 -3C364 -1 391 0 420 0C449 0 476 -1 544 -3L544 27L499 30C465 32 462 39 462 102L462 314C462 359 528 408 589 408C656 408 700 358 700 281Z" stroke="rgb(0,0,0)" stroke-opacity="1" stroke-width="8" fill="rgb(0,0,0)" fill-opacity="1"></path></g></g></g><g><g transform="matrix(1,0,0,1,357.80560302734375,144.31248474121094)"><path transform="matrix(0.0085,0,0,-0.0085,0,0)" d="M9 1C24 -7 40 -11 52 -11C85 -11 124 18 155 65L231 182L242 113C255 28 278 -11 314 -11C336 -11 368 6 400 35L449 79L440 98C404 68 379 53 363 53C348 53 335 63 325 83C316 102 305 139 300 168L282 269L317 318C364 383 391 406 422 406C438 406 450 398 455 383L469 387L484 472C472 479 463 482 454 482C414 482 374 446 312 354L275 299L269 347C257 446 230 482 171 482C145 482 123 474 114 461L56 378L73 368C103 402 123 416 142 416C175 416 197 375 214 277L225 215L185 153C142 86 108 54 80 54C65 54 54 58 52 63L41 91L21 88C21 53 13 27 9 1Z" stroke="rgb(0,0,0)" stroke-opacity="1" stroke-width="8" fill="rgb(0,0,0)" fill-opacity="1"></path></g></g><g><g transform="matrix(1,0,0,1,365.86114501953125,144.31248474121094)"><path transform="matrix(0.0085,0,0,-0.0085,0,0)" d="M604 241L604 300L364 300L364 538L305 538L305 300L65 300L65 241L305 241L305 0L364 0L364 241Z" stroke="rgb(0,0,0)" stroke-opacity="1" stroke-width="8" fill="rgb(0,0,0)" fill-opacity="1"></path></g></g><g><g transform="matrix(1,0,0,1,373.23614501953125,144.31248474121094)"><path transform="matrix(0.0085,0,0,-0.0085,0,0)" d="M418 -3L418 27L366 30C311 33 301 44 301 96L301 700L60 598L67 548L217 614L217 96C217 44 206 33 152 30L96 27L96 -3C250 0 250 0 261 0C292 0 402 -3 418 -3Z" stroke="rgb(0,0,0)" stroke-opacity="1" stroke-width="8" fill="rgb(0,0,0)" fill-opacity="1"></path></g></g><g><g transform="matrix(1,0,0,1,377.48614501953125,145.20140075683594)"><path transform="matrix(0.0085,0,0,-0.0085,0,0)" d="M51 726L32 700C87 636 187 526 187 266C187 -10 83 -131 32 -194L51 -215C104 -165 273 -23 273 265C273 542 108 675 51 726Z" stroke="rgb(0,0,0)" stroke-opacity="1" stroke-width="8" fill="rgb(0,0,0)" fill-opacity="1"></path></g></g></g></g></g></g></g><g><g><g><text x="337.22222900390625" y="173.2777862548828" style="white-space:pre;stroke:none;fill:rgb(0,0,0);fill-opacity:1;font-size:15px;font-family:Arial, Helvetica, sans-serif;font-weight:400;font-style:normal;dominant-baseline:text-before-edge;text-decoration:none solid rgb(0, 0, 0);">(0,1)</text></g></g></g><g><g><g><g><g><g><g transform="matrix(1,0,0,1,318.47222900390625,127.16667175292969)"><path transform="matrix(0.017,0,0,-0.017,0,0)" d="M345 437L329 437L350 549C366 635 394 673 440 673C470 673 497 658 512 634L522 638C527 654 537 685 545 705L550 720C534 727 503 733 480 733C469 733 453 730 445 726C421 715 339 654 316 630C294 608 282 578 271 521L256 442C215 422 195 414 170 405L165 383L246 383L237 327C207 132 170 -54 148 -123C130 -182 100 -213 64 -213C41 -213 30 -206 12 -184L-2 -188C-6 -211 -20 -259 -25 -268C-16 -273 -1 -276 10 -276C51 -276 105 -245 144 -198C215 -114 235 -18 319 383L423 383C427 402 434 425 440 439L436 446C407 439 408 437 345 437ZM654 470C711 543 749 610 783 696L770 709C734 697 724 694 673 679C667 599 643 533 595 456L610 446Z" stroke="rgb(0,0,0)" stroke-opacity="1" stroke-width="8" fill="rgb(0,0,0)" fill-opacity="1"></path></g></g><g><g transform="matrix(1,0,0,1,332.52783203125,128.05555725097656)"><path transform="matrix(0.017,0,0,-0.017,0,0)" d="M146 266C146 526 243 632 301 700L282 726C225 675 60 542 60 266C60 159 85 58 133 -32C168 -99 200 -138 282 -215L301 -194C255 -137 146 -15 146 266Z" stroke="rgb(0,0,0)" stroke-opacity="1" stroke-width="8" fill="rgb(0,0,0)" fill-opacity="1"></path></g></g><g><g transform="matrix(1,0,0,1,338.18060302734375,127.16667175292969)"><path transform="matrix(0.017,0,0,-0.017,0,0)" d="M9 1C24 -7 40 -11 52 -11C85 -11 124 18 155 65L231 182L242 113C255 28 278 -11 314 -11C336 -11 368 6 400 35L449 79L440 98C404 68 379 53 363 53C348 53 335 63 325 83C316 102 305 139 300 168L282 269L317 318C364 383 391 406 422 406C438 406 450 398 455 383L469 387L484 472C472 479 463 482 454 482C414 482 374 446 312 354L275 299L269 347C257 446 230 482 171 482C145 482 123 474 114 461L56 378L73 368C103 402 123 416 142 416C175 416 197 375 214 277L225 215L185 153C142 86 108 54 80 54C65 54 54 58 52 63L41 91L21 88C21 53 13 27 9 1Z" stroke="rgb(0,0,0)" stroke-opacity="1" stroke-width="8" fill="rgb(0,0,0)" fill-opacity="1"></path></g></g><g><g transform="matrix(1,0,0,1,346.66668701171875,128.05555725097656)"><path transform="matrix(0.017,0,0,-0.017,0,0)" d="M51 726L32 700C87 636 187 526 187 266C187 -10 83 -131 32 -194L51 -215C104 -165 273 -23 273 265C273 542 108 675 51 726Z" stroke="rgb(0,0,0)" stroke-opacity="1" stroke-width="8" fill="rgb(0,0,0)" fill-opacity="1"></path></g></g></g></g></g></g></g><g><g><g><g><g><g><g transform="matrix(1,0,0,1,319.513916015625,164.31248474121094)"><path transform="matrix(0.0085,0,0,-0.0085,0,0)" d="M555 243L555 299L51 299L51 243Z" stroke="rgb(0,0,0)" stroke-opacity="1" stroke-width="8" fill="rgb(0,0,0)" fill-opacity="1"></path></g></g><g><g transform="matrix(1,0,0,1,324.66668701171875,165.20140075683594)"><path transform="matrix(0.0085,0,0,-0.0085,0,0)" d="M146 266C146 526 243 632 301 700L282 726C225 675 60 542 60 266C60 159 85 58 133 -32C168 -99 200 -138 282 -215L301 -194C255 -137 146 -15 146 266Z" stroke="rgb(0,0,0)" stroke-opacity="1" stroke-width="8" fill="rgb(0,0,0)" fill-opacity="1"></path></g></g><g><g transform="matrix(1,0,0,1,327.5,164.31248474121094)"><path transform="matrix(0.0085,0,0,-0.0085,0,0)" d="M555 243L555 299L51 299L51 243Z" stroke="rgb(0,0,0)" stroke-opacity="1" stroke-width="8" fill="rgb(0,0,0)" fill-opacity="1"></path></g></g><g><g transform="matrix(1,0,0,1,332.65283203125,164.31248474121094)"><path transform="matrix(0.0085,0,0,-0.0085,0,0)" d="M9 1C24 -7 40 -11 52 -11C85 -11 124 18 155 65L231 182L242 113C255 28 278 -11 314 -11C336 -11 368 6 400 35L449 79L440 98C404 68 379 53 363 53C348 53 335 63 325 83C316 102 305 139 300 168L282 269L317 318C364 383 391 406 422 406C438 406 450 398 455 383L469 387L484 472C472 479 463 482 454 482C414 482 374 446 312 354L275 299L269 347C257 446 230 482 171 482C145 482 123 474 114 461L56 378L73 368C103 402 123 416 142 416C175 416 197 375 214 277L225 215L185 153C142 86 108 54 80 54C65 54 54 58 52 63L41 91L21 88C21 53 13 27 9 1Z" stroke="rgb(0,0,0)" stroke-opacity="1" stroke-width="8" fill="rgb(0,0,0)" fill-opacity="1"></path></g></g><g><g transform="matrix(1,0,0,1,336.90283203125,165.20140075683594)"><path transform="matrix(0.0085,0,0,-0.0085,0,0)" d="M51 726L32 700C87 636 187 526 187 266C187 -10 83 -131 32 -194L51 -215C104 -165 273 -23 273 265C273 542 108 675 51 726Z" stroke="rgb(0,0,0)" stroke-opacity="1" stroke-width="8" fill="rgb(0,0,0)" fill-opacity="1"></path></g></g><g><g><g><g><g transform="matrix(1,0,0,1,340.22222900390625,161.85971374511718)"><path transform="matrix(0.00595,0,0,-0.00595,0,0)" d="M555 243L555 299L51 299L51 243ZM614 1C629 -7 645 -11 657 -11C690 -11 729 18 760 65L836 182L847 113C860 28 883 -11 919 -11C941 -11 973 6 1005 35L1054 79L1045 98C1009 68 984 53 968 53C953 53 940 63 930 83C921 102 910 139 905 168L887 269L922 318C969 383 996 406 1027 406C1043 406 1055 398 1060 383L1074 387L1089 472C1077 479 1068 482 1059 482C1019 482 979 446 917 354L880 299L874 347C862 446 835 482 776 482C750 482 728 474 719 461L661 378L678 368C708 402 728 416 747 416C780 416 802 375 819 277L830 215L790 153C747 86 713 54 685 54C670 54 659 58 657 63L646 91L626 88C626 53 618 27 614 1Z" stroke="rgb(0,0,0)" stroke-opacity="1" stroke-width="8" fill="rgb(0,0,0)" fill-opacity="1"></path></g></g></g></g></g><g><g transform="matrix(1,0,0,1,347.29168701171875,165.20140075683594)"><path transform="matrix(0.0085,0,0,-0.0085,0,0)" d="M146 266C146 526 243 632 301 700L282 726C225 675 60 542 60 266C60 159 85 58 133 -32C168 -99 200 -138 282 -215L301 -194C255 -137 146 -15 146 266Z" stroke="rgb(0,0,0)" stroke-opacity="1" stroke-width="8" fill="rgb(0,0,0)" fill-opacity="1"></path></g></g><g><g><g transform="matrix(1,0,0,1,350.125,164.31248474121094)"><path transform="matrix(0.0085,0,0,-0.0085,0,0)" d="M23 661L79 661C97 661 104 650 104 620L104 102C104 39 101 32 67 30L21 27L21 -3C121 0 121 0 146 0C171 0 171 0 271 -3L271 27L225 30C191 32 188 39 188 102L188 718L179 726C135 709 102 701 23 689ZM700 -3C761 0 762 0 779 0C793 0 793 0 862 -3L862 27L821 30C787 32 784 38 784 102L784 295C784 412 729 469 617 469C580 469 559 462 538 444L462 378L462 465L453 469C402 448 350 434 297 428L297 400L334 400C374 400 378 393 378 327L378 102C378 39 375 32 341 30L296 27L296 -3C364 -1 391 0 420 0C449 0 476 -1 544 -3L544 27L499 30C465 32 462 39 462 102L462 314C462 359 528 408 589 408C656 408 700 358 700 281Z" stroke="rgb(0,0,0)" stroke-opacity="1" stroke-width="8" fill="rgb(0,0,0)" fill-opacity="1"></path></g></g></g><g><g transform="matrix(1,0,0,1,357.52783203125,164.31248474121094)"><path transform="matrix(0.0085,0,0,-0.0085,0,0)" d="" stroke="rgb(0,0,0)" stroke-opacity="1" stroke-width="8" fill="rgb(0,0,0)" fill-opacity="1"></path></g></g><g><g transform="matrix(1,0,0,1,359.65283203125,164.31248474121094)"><path transform="matrix(0.0085,0,0,-0.0085,0,0)" d="M555 243L555 299L51 299L51 243Z" stroke="rgb(0,0,0)" stroke-opacity="1" stroke-width="8" fill="rgb(0,0,0)" fill-opacity="1"></path></g></g><g><g transform="matrix(1,0,0,1,364.80560302734375,164.31248474121094)"><path transform="matrix(0.0085,0,0,-0.0085,0,0)" d="M9 1C24 -7 40 -11 52 -11C85 -11 124 18 155 65L231 182L242 113C255 28 278 -11 314 -11C336 -11 368 6 400 35L449 79L440 98C404 68 379 53 363 53C348 53 335 63 325 83C316 102 305 139 300 168L282 269L317 318C364 383 391 406 422 406C438 406 450 398 455 383L469 387L484 472C472 479 463 482 454 482C414 482 374 446 312 354L275 299L269 347C257 446 230 482 171 482C145 482 123 474 114 461L56 378L73 368C103 402 123 416 142 416C175 416 197 375 214 277L225 215L185 153C142 86 108 54 80 54C65 54 54 58 52 63L41 91L21 88C21 53 13 27 9 1Z" stroke="rgb(0,0,0)" stroke-opacity="1" stroke-width="8" fill="rgb(0,0,0)" fill-opacity="1"></path></g></g><g><g transform="matrix(1,0,0,1,372.86114501953125,164.31248474121094)"><path transform="matrix(0.0085,0,0,-0.0085,0,0)" d="M604 241L604 300L364 300L364 538L305 538L305 300L65 300L65 241L305 241L305 0L364 0L364 241Z" stroke="rgb(0,0,0)" stroke-opacity="1" stroke-width="8" fill="rgb(0,0,0)" fill-opacity="1"></path></g></g><g><g transform="matrix(1,0,0,1,380.23614501953125,164.31248474121094)"><path transform="matrix(0.0085,0,0,-0.0085,0,0)" d="M418 -3L418 27L366 30C311 33 301 44 301 96L301 700L60 598L67 548L217 614L217 96C217 44 206 33 152 30L96 27L96 -3C250 0 250 0 261 0C292 0 402 -3 418 -3Z" stroke="rgb(0,0,0)" stroke-opacity="1" stroke-width="8" fill="rgb(0,0,0)" fill-opacity="1"></path></g></g><g><g transform="matrix(1,0,0,1,384.48614501953125,165.20140075683594)"><path transform="matrix(0.0085,0,0,-0.0085,0,0)" d="M51 726L32 700C87 636 187 526 187 266C187 -10 83 -131 32 -194L51 -215C104 -165 273 -23 273 265C273 542 108 675 51 726Z" stroke="rgb(0,0,0)" stroke-opacity="1" stroke-width="8" fill="rgb(0,0,0)" fill-opacity="1"></path></g></g></g></g></g></g></g></svg>
</svg>
